<?xml version="1.0" encoding="UTF-8" standalone="no"?>
<!-- Created with Inkscape (http://www.inkscape.org/) -->

<svg
   width="2.0585227mm"
   height="1.7980331mm"
   viewBox="0 0 2.0585227 1.7980331"
   version="1.1"
   id="svg1"
   xmlns:inkscape="http://www.inkscape.org/namespaces/inkscape"
   xmlns:sodipodi="http://sodipodi.sourceforge.net/DTD/sodipodi-0.dtd"
   xmlns="http://www.w3.org/2000/svg"
   xmlns:svg="http://www.w3.org/2000/svg">
  <sodipodi:namedview
     id="namedview1"
     pagecolor="#ffffff"
     bordercolor="#000000"
     borderopacity="0.25"
     inkscape:showpageshadow="2"
     inkscape:pageopacity="0.0"
     inkscape:pagecheckerboard="0"
     inkscape:deskcolor="#d1d1d1"
     inkscape:document-units="mm" />
  <defs
     id="defs1" />
  <g
     inkscape:label="Capa 1"
     inkscape:groupmode="layer"
     id="layer1"
     transform="translate(-128.85208,-161.4978)">
    <g
       id="Layer1040"
       transform="matrix(0.35277721,0,0,0.35277721,16.770633,36.141797)">
      <path
         d="m 320.3508,355.3764 c -0.4176,0.1334 -0.6745,0.5432 -0.6215,0.9922 0.0137,0.1274 0.049,0.2039 0.4529,1.0039 0.2412,0.4784 0.4412,0.8686 0.4471,0.8686 0.006,0 0.2059,-0.3902 0.447,-0.8686 0.4039,-0.8 0.4392,-0.8765 0.453,-1.0039 0.0529,-0.451 -0.2059,-0.8608 -0.6275,-0.9922 -0.1549,-0.049 -0.398,-0.047 -0.551,0 z m 0.5295,0.3883 c 0.1235,0.0588 0.2254,0.1843 0.2686,0.3255 0.0392,0.1333 0.0372,0.2078 -0.0118,0.3392 -0.0784,0.2078 -0.2549,0.3411 -0.4725,0.3568 -0.3588,0.0275 -0.649,-0.3117 -0.5647,-0.6588 0.0843,-0.3549 0.447,-0.5235 0.7804,-0.3627 z"
         style="fill:#326d7d;fill-rule:evenodd"
         id="path466" />
      <path
         d="m 318.796,357.1862 c -0.006,0.0137 -0.251,0.751 -0.5471,1.6372 l -0.5372,1.6138 h 2.9176 2.9176 l -0.5431,-1.6334 -0.5451,-1.6313 -0.4314,-0.006 -0.4333,-0.004 -0.0902,0.1765 -0.0902,0.1764 h 0.3882 0.3863 l 0.2,0.5961 c 0.1961,0.5921 0.198,0.598 0.1588,0.6333 -0.0863,0.0765 -0.0843,0.1 0.0176,0.2079 0.051,0.0568 0.104,0.1039 0.1177,0.1078 0.0118,0.004 0.0961,0.2235 0.1843,0.4902 0.0882,0.2666 0.1647,0.4961 0.1706,0.5078 0.006,0.0196 -0.4843,0.0255 -2.4078,0.0255 -1.9255,0 -2.4137,-0.006 -2.4078,-0.0255 0.006,-0.0118 0.0882,-0.2588 0.1843,-0.5451 0.098,-0.298 0.1823,-0.5196 0.1921,-0.5157 0.0118,0.004 0.0647,-0.0607 0.1177,-0.1431 l 0.0941,-0.151 -0.053,-0.0431 -0.0529,-0.0431 0.1824,-0.551 0.1843,-0.551 h 0.3862 0.3883 l -0.0883,-0.1765 -0.0882,-0.1764 h -0.4314 c -0.3274,0 -0.4353,0.006 -0.4411,0.0235 z"
         style="fill:#326d7d;fill-rule:evenodd"
         id="path467" />
      <path
         d="m 321.4234,358.1764 c -0.2549,0.0529 -0.3059,0.0706 -0.2941,0.102 0.008,0.0176 0.0313,0.096 0.0549,0.1745 0.0372,0.1274 0.047,0.1411 0.0823,0.1313 0.0216,-0.006 0.0941,-0.0215 0.1628,-0.0333 0.1372,-0.0235 0.1313,-0.01 0.1078,-0.2569 -0.0118,-0.1372 -0.0137,-0.1392 -0.1137,-0.1176 z"
         style="fill:#326d7d;fill-rule:evenodd"
         id="path468" />
      <path
         d="m 321.9547,358.198 c -0.0117,0.0215 -0.0745,0.3392 -0.0666,0.3431 0.004,0.002 0.0588,0.0235 0.1235,0.0451 0.0647,0.0235 0.1314,0.0471 0.1471,0.0549 0.0235,0.01 0.049,-0.0275 0.1117,-0.1529 l 0.0824,-0.1647 -0.0922,-0.0393 c -0.1294,-0.0549 -0.2961,-0.1019 -0.3059,-0.0862 z"
         style="fill:#326d7d;fill-rule:evenodd"
         id="path469" />
      <path
         d="m 320.5704,358.4999 c -0.0803,0.0432 -0.1509,0.0824 -0.1529,0.0863 -0.006,0.004 0.0431,0.0961 0.1373,0.2569 l 0.0372,0.0627 0.1137,-0.0627 c 0.0628,-0.0353 0.1334,-0.0765 0.1569,-0.0922 l 0.0451,-0.0294 -0.0745,-0.153 c -0.0412,-0.0823 -0.0843,-0.1509 -0.0961,-0.1509 -0.01,0 -0.0863,0.0372 -0.1667,0.0823 z"
         style="fill:#326d7d;fill-rule:evenodd"
         id="path470" />
      <path
         d="m 319.9528,358.7901 c -0.0529,0.0196 -0.1137,0.0373 -0.1314,0.0373 -0.0529,0.002 -0.0549,0.0255 -0.0215,0.2059 l 0.0333,0.1705 0.0608,-0.0137 c 0.0843,-0.0176 0.2921,-0.0882 0.3117,-0.1059 0.0216,-0.0215 -0.1039,-0.3333 -0.1333,-0.3313 -0.0118,0.002 -0.0647,0.0196 -0.1196,0.0372 z"
         style="fill:#326d7d;fill-rule:evenodd"
         id="path471" />
      <path
         d="m 319.092,358.8725 c -0.006,0.0255 -0.0274,0.1039 -0.049,0.1764 l -0.0372,0.1334 0.0706,0.0196 c 0.0392,0.01 0.1372,0.0235 0.2156,0.0313 l 0.1432,0.0138 -0.006,-0.1843 -0.006,-0.1843 -0.1235,-0.0138 c -0.0667,-0.008 -0.1392,-0.0196 -0.1588,-0.0255 -0.0275,-0.008 -0.0393,0.002 -0.049,0.0334 z"
         style="fill:#326d7d;fill-rule:evenodd"
         id="path472" />
    </g>
  </g>
</svg>
