<?xml version="1.0" encoding="UTF-8" standalone="no"?>
<!-- Created with Inkscape (http://www.inkscape.org/) -->

<svg
   width="1.2991455mm"
   height="2.1727681mm"
   viewBox="0 0 1.2991455 2.1727681"
   version="1.1"
   id="svg1"
   xmlns:inkscape="http://www.inkscape.org/namespaces/inkscape"
   xmlns:sodipodi="http://sodipodi.sourceforge.net/DTD/sodipodi-0.dtd"
   xmlns="http://www.w3.org/2000/svg"
   xmlns:svg="http://www.w3.org/2000/svg">
  <sodipodi:namedview
     id="namedview1"
     pagecolor="#ffffff"
     bordercolor="#000000"
     borderopacity="0.25"
     inkscape:showpageshadow="2"
     inkscape:pageopacity="0.0"
     inkscape:pagecheckerboard="0"
     inkscape:deskcolor="#d1d1d1"
     inkscape:document-units="mm" />
  <defs
     id="defs1" />
  <g
     inkscape:label="Capa 1"
     inkscape:groupmode="layer"
     id="layer1"
     transform="translate(-129.10976,-158.90484)">
    <path
       d="m 129.12047,158.91462 c -0.0111,0.008 -0.0117,0.0339 -0.01,0.37144 l 0.002,0.36314 0.0166,0.0415 c 0.0131,0.0325 0.029,0.054 0.0733,0.0969 0.0305,0.0304 0.0706,0.0678 0.0885,0.083 l 0.0332,0.0277 -0.008,0.10029 c -0.004,0.0553 -0.0124,0.16115 -0.018,0.23517 -0.0152,0.18609 -0.0201,0.4918 -0.01,0.57068 0.027,0.20821 0.0823,0.28152 0.20475,0.27115 0.0539,-0.004 0.0809,-0.0194 0.11067,-0.0623 0.0782,-0.11275 0.0878,-0.35831 0.0374,-0.93863 -0.004,-0.0436 -0.007,-0.10375 -0.007,-0.13282 0,-0.0519 7.1e-4,-0.0533 0.0228,-0.0685 0.0118,-0.009 0.0256,-0.0194 0.0305,-0.0235 0.005,-0.004 0.0249,-0.0207 0.0456,-0.038 0.0602,-0.0505 0.0961,-0.11345 0.10858,-0.19021 0.004,-0.0228 0.007,-0.18539 0.007,-0.3604 0,-0.39151 0.0118,-0.35553 -0.11413,-0.35553 -0.0809,0 -0.0865,7.1e-4 -0.0961,0.0152 -0.01,0.0132 -0.0111,0.0491 -0.0111,0.25178 0,0.2013 -0.001,0.23728 -0.0104,0.24486 -0.008,0.007 -0.0125,0.007 -0.0207,0 -0.009,-0.008 -0.0104,-0.0436 -0.0104,-0.24623 0,-0.28981 0.0104,-0.26561 -0.10858,-0.26561 -0.0616,7.1e-4 -0.0851,0.003 -0.0955,0.0111 -0.0131,0.01 -0.0138,0.0194 -0.0159,0.2559 -10e-4,0.20892 -0.004,0.24628 -0.0118,0.24973 -0.006,0.002 -0.0152,0 -0.0207,-0.005 -0.009,-0.008 -0.0104,-0.0422 -0.0104,-0.24486 7.1e-4,-0.13003 -0.001,-0.2414 -0.004,-0.24761 -0.006,-0.0159 -0.0249,-0.0194 -0.11138,-0.0194 -0.0505,0 -0.0803,0.003 -0.0885,0.009 z m 0.12037,0.30504 c 0,0.22066 0,0.22342 0.0159,0.24695 0.0436,0.0657 0.14457,0.0629 0.1833,-0.006 0.0152,-0.0277 0.0159,-0.0318 0.0159,-0.24624 v -0.21858 h 0.02 0.0201 l 0.002,0.22412 c 0.002,0.21513 0.003,0.2255 0.0166,0.24416 0.0505,0.0678 0.1349,0.0678 0.18539,0 0.0138,-0.0187 0.0145,-0.029 0.0166,-0.24416 l 0.002,-0.22412 h 0.02 0.0207 v 0.26769 c 0,0.14803 -0.003,0.29397 -0.006,0.32441 -0.01,0.0837 -0.0311,0.11621 -0.12382,0.19022 -0.0879,0.0692 -0.0913,0.0788 -0.0837,0.20338 0.011,0.18397 0.0277,0.40188 0.0304,0.41088 0.002,0.005 0.004,0.092 0.004,0.19367 0,0.32442 -0.0325,0.42333 -0.13006,0.39772 -0.0207,-0.006 -0.0415,-0.047 -0.0581,-0.11345 -0.0173,-0.0691 -0.0242,-0.31401 -0.0131,-0.4669 0.008,-0.11137 0.02,-0.27323 0.0249,-0.32508 0.001,-0.0152 0.004,-0.0657 0.008,-0.11208 0.005,-0.0823 0.004,-0.0844 -0.0131,-0.11483 -0.01,-0.0166 -0.0297,-0.0394 -0.0436,-0.0505 -0.0996,-0.0775 -0.12795,-0.11 -0.14594,-0.16531 -0.01,-0.0297 -0.0117,-0.0788 -0.0145,-0.33758 l -0.002,-0.30226 h 0.0242 0.0249 v 0.22412 z"
       style="fill:#326d7d;fill-rule:evenodd;stroke-width:0.352777"
       id="path473" />
    <path
       d="m 129.94707,158.91737 c -0.0138,0.0125 -0.0138,0.0166 -0.0173,0.49664 -0.002,0.42266 -0.009,0.67165 -0.0207,0.76782 -0.0194,0.16048 -0.0249,0.43783 -0.0118,0.59485 0.009,0.1107 0.0125,0.12799 0.0297,0.17847 0.0284,0.0837 0.0775,0.12245 0.15498,0.12245 0.0795,0 0.11825,-0.0235 0.15007,-0.0913 0.0346,-0.074 0.0429,-0.14178 0.0429,-0.35828 0,-0.19713 0,-0.19713 -0.0194,-0.25385 -0.0104,-0.0318 -0.036,-0.092 -0.0574,-0.13491 -0.0657,-0.13419 -0.0616,-0.15215 0.065,-0.28426 0.13211,-0.13836 0.15148,-0.18818 0.14457,-0.37839 -0.007,-0.18193 -0.0477,-0.35207 -0.11275,-0.46828 -0.0318,-0.0574 -0.10862,-0.13836 -0.15427,-0.16326 -0.0706,-0.0373 -0.16531,-0.0512 -0.19367,-0.0277 z m 0.1494,0.10791 c 0.0208,0.0111 0.0989,0.0865 0.0989,0.0955 0,0.004 0.008,0.0166 0.0173,0.0304 0.0222,0.0332 0.054,0.11624 0.072,0.19026 0.018,0.0719 0.0194,0.083 0.0304,0.20404 0.0159,0.17085 -0.004,0.22687 -0.11966,0.34587 -0.15565,0.15906 -0.16602,0.21858 -0.0726,0.40392 0.0657,0.13216 0.0782,0.20338 0.0657,0.39706 -0.009,0.14319 -0.0201,0.21304 -0.0422,0.25802 -0.0145,0.0304 -0.027,0.0374 -0.0692,0.0374 -0.0477,0 -0.0678,-0.0415 -0.0858,-0.17639 -0.0111,-0.0816 -0.009,-0.41504 0.003,-0.54991 0.0173,-0.19022 0.0215,-0.33479 0.0263,-0.78994 l 0.004,-0.47452 0.0256,0.009 c 0.0145,0.005 0.0353,0.0138 0.0463,0.0194 z"
       style="fill:#326d7d;fill-rule:evenodd;stroke-width:0.352777"
       id="path474" />
  </g>
</svg>
