<?xml version="1.0" encoding="UTF-8" standalone="no"?>
<!-- Created with Inkscape (http://www.inkscape.org/) -->

<svg
   width="1.8538516mm"
   height="1.6413727mm"
   viewBox="0 0 1.8538516 1.6413727"
   version="1.1"
   id="svg1"
   xmlns:inkscape="http://www.inkscape.org/namespaces/inkscape"
   xmlns:sodipodi="http://sodipodi.sourceforge.net/DTD/sodipodi-0.dtd"
   xmlns="http://www.w3.org/2000/svg"
   xmlns:svg="http://www.w3.org/2000/svg">
  <sodipodi:namedview
     id="namedview1"
     pagecolor="#ffffff"
     bordercolor="#000000"
     borderopacity="0.25"
     inkscape:showpageshadow="2"
     inkscape:pageopacity="0.0"
     inkscape:pagecheckerboard="0"
     inkscape:deskcolor="#d1d1d1"
     inkscape:document-units="mm" />
  <defs
     id="defs1" />
  <g
     inkscape:label="Capa 1"
     inkscape:groupmode="layer"
     id="layer1"
     transform="translate(-128.99439,-156.89839)">
    <path
       d="m 129.79886,156.89991 c -0.736,0.004 -0.7415,0.004 -0.76087,0.018 -0.0775,0.0567 -0.045,0.17706 0.0505,0.18813 l 0.0304,0.004 v 0.6108 0.61147 h -0.027 c -0.0505,0 -0.0975,0.0491 -0.0975,0.10304 0,0.0325 0.0249,0.0726 0.0554,0.0899 l 0.0263,0.0145 h 0.84526 0.84529 l 0.0276,-0.0152 c 0.0311,-0.018 0.054,-0.0554 0.054,-0.0899 0,-0.0533 -0.0471,-0.10237 -0.0975,-0.10237 h -0.027 v -0.61218 -0.61217 h 0.0207 c 0.0588,0 0.10862,-0.0567 0.10171,-0.11483 -0.004,-0.0339 -0.0256,-0.0678 -0.0519,-0.0816 -0.0269,-0.0138 -0.15561,-0.0152 -0.99536,-0.0111 z m 0.95525,0.0802 c 0.0159,0.006 0.0152,0.0443 -7e-4,0.0443 -0.007,0 -0.16115,0 -0.34237,0 -0.19022,0 -0.33757,0.003 -0.34795,0.007 -0.0221,0.008 -0.0291,0.0367 -0.0145,0.0588 l 0.0111,0.0173 0.29259,0.001 0.29189,0.002 v 0.60871 0.60872 l -0.24349,0.002 -0.24416,0.001 v -0.19713 c 0,-0.18817 -7e-4,-0.19784 -0.0138,-0.211 -0.0131,-0.0131 -0.0228,-0.0138 -0.22136,-0.0138 -0.19851,0 -0.20821,7.1e-4 -0.22134,0.0138 -0.0131,0.0132 -0.0138,0.0228 -0.0138,0.211 v 0.1978 l -0.24349,-0.002 -0.24419,-0.002 -0.002,-0.6108 -0.001,-0.6101 h 0.29192 c 0.26145,0 0.2926,-0.001 0.30434,-0.0117 0.0132,-0.0118 0.0159,-0.0339 0.007,-0.0491 -0.0125,-0.0194 -0.0602,-0.0222 -0.3749,-0.0222 -0.17709,0 -0.32512,0 -0.32995,0 -0.005,0 -0.0118,-0.006 -0.0159,-0.0131 -0.005,-0.0104 -0.004,-0.0159 0.004,-0.0242 0.01,-0.01 0.0954,-0.0111 0.83626,-0.0111 0.45378,0 0.83005,0.002 0.83629,0.004 z m -0.87432,1.17799 v 0.17156 l -0.0554,0.001 -0.0553,0.001 v -0.17293 -0.1736 h 0.0553 0.0554 v 0.17222 z m 0.19368,7.1e-4 v 0.17293 h -0.0553 -0.0554 v -0.17293 -0.17294 h 0.0554 0.0553 z m 0.6834,0.25523 c 0.006,0.003 0.008,0.0132 0.007,0.0221 l -0.002,0.0166 h -0.84046 -0.84042 l -0.002,-0.0166 c -0.001,-0.009 0.001,-0.0194 0.007,-0.0221 0.005,-0.004 0.38111,-0.006 0.83556,-0.006 0.45448,0 0.83075,0.003 0.83558,0.006 z"
       style="fill:#326d7d;fill-rule:evenodd;stroke-width:0.352777"
       id="path454" />
    <path
       d="m 129.88949,157.04864 c -0.009,0.0145 -0.0104,0.0214 -0.004,0.0346 0.0152,0.0332 0.0657,0.0284 0.0747,-0.008 0.01,-0.0394 -0.0477,-0.0616 -0.0705,-0.0269 z"
       style="fill:#326d7d;fill-rule:evenodd;stroke-width:0.352777"
       id="path455" />
    <path
       d="m 129.3126,157.18142 c -0.0249,0.009 -0.0277,0.0242 -0.0277,0.1349 0,0.14457 -0.008,0.13695 0.13349,0.13695 0.14524,0 0.13624,0.009 0.13624,-0.13419 0,-0.0858 -0.002,-0.1155 -0.01,-0.12588 -0.009,-0.0118 -0.0201,-0.0131 -0.11621,-0.0145 -0.0581,-7.1e-4 -0.11067,0 -0.1162,0.003 z m 0.16601,0.13353 v 0.0553 h -0.0588 -0.0588 v -0.0553 -0.0554 h 0.0588 0.0588 z"
       style="fill:#326d7d;fill-rule:evenodd;stroke-width:0.352777"
       id="path456" />
    <path
       d="m 129.65154,157.18142 c -0.0249,0.009 -0.0277,0.0242 -0.0277,0.1349 0,0.14457 -0.008,0.13695 0.13349,0.13695 0.14528,0 0.13628,0.01 0.13628,-0.13832 0,-0.14736 0.008,-0.13836 -0.13141,-0.13766 -0.0554,0 -0.10516,0.002 -0.11067,0.004 z m 0.16599,0.13353 v 0.0553 h -0.0574 -0.0574 l -0.001,-0.0332 c -7.1e-4,-0.018 0,-0.0429 0.002,-0.0554 l 0.004,-0.0221 h 0.0547 0.0553 z"
       style="fill:#326d7d;fill-rule:evenodd;stroke-width:0.352777"
       id="path457" />
    <path
       d="m 129.99046,157.18142 c -0.0242,0.01 -0.027,0.0249 -0.0277,0.1349 0,0.14457 -0.008,0.13695 0.13349,0.13695 0.14527,0 0.13628,0.01 0.13628,-0.13832 0,-0.14736 0.008,-0.13836 -0.13145,-0.13766 -0.0553,0 -0.10512,0.002 -0.11066,0.004 z m 0.16601,0.13353 v 0.0553 h -0.0554 -0.0553 v -0.0553 -0.0554 h 0.0553 0.0554 z"
       style="fill:#326d7d;fill-rule:evenodd;stroke-width:0.352777"
       id="path458" />
    <path
       d="m 130.31903,157.19387 -0.018,0.0173 0.002,0.11137 c 0.002,0.1003 0.004,0.11208 0.0152,0.12108 0.0104,0.008 0.0394,0.01 0.11967,0.01 0.10378,0 0.10724,-7e-4 0.12311,-0.0173 0.0166,-0.0159 0.0173,-0.0194 0.0173,-0.11967 0,-0.14248 0.006,-0.13557 -0.1342,-0.13836 l -0.10792,-0.002 -0.0173,0.018 z m 0.17639,0.12108 v 0.0553 h -0.0554 -0.0553 v -0.0553 -0.0554 h 0.0553 0.0554 z"
       style="fill:#326d7d;fill-rule:evenodd;stroke-width:0.352777"
       id="path459" />
    <path
       d="m 129.29669,157.52108 c -0.0166,0.0187 -0.0173,0.22962 -7.1e-4,0.24623 0.009,0.009 0.0304,0.0111 0.12382,0.0111 0.0934,0 0.11483,-0.002 0.12383,-0.0111 0.009,-0.009 0.011,-0.0304 0.011,-0.12312 0,-0.10029 -0.001,-0.11412 -0.0125,-0.12382 -0.011,-0.01 -0.0304,-0.0118 -0.12379,-0.0118 -0.0983,0 -0.11208,0.001 -0.12174,0.0125 z m 0.17847,0.12241 v 0.0553 h -0.0554 -0.0554 l -0.002,-0.0477 c -0.003,-0.0685 -0.004,-0.0671 0.0588,-0.065 l 0.054,0.002 v 0.0553 z"
       style="fill:#326d7d;fill-rule:evenodd;stroke-width:0.352777"
       id="path460" />
    <path
       d="m 129.63563,157.52108 c -0.01,0.011 -0.0118,0.0304 -0.0118,0.12379 0,0.0982 0.001,0.11207 0.0125,0.12174 0.0187,0.0166 0.22966,0.0173 0.24624,7e-4 0.0166,-0.0159 0.0166,-0.23174 0,-0.24765 -0.009,-0.009 -0.0304,-0.011 -0.12312,-0.011 -0.10029,0 -0.11412,0.001 -0.12379,0.0125 z m 0.17844,0.12241 v 0.0553 l -0.0533,0.002 c -0.0297,10e-4 -0.0546,-7.1e-4 -0.0546,-0.004 -0.004,-0.0152 -0.004,-0.10308 -10e-4,-0.10792 0.002,-0.003 0.027,-0.005 0.056,-0.004 l 0.0533,0.002 v 0.0553 z"
       style="fill:#326d7d;fill-rule:evenodd;stroke-width:0.352777"
       id="path461" />
    <path
       d="m 129.97388,157.52383 c -0.009,0.0125 -0.0111,0.0367 -0.0111,0.11966 0,0.1439 -0.009,0.1349 0.13487,0.1349 0.0934,0 0.11482,-0.002 0.12382,-0.0111 0.0166,-0.0159 0.0166,-0.23174 0,-0.24765 -0.009,-0.009 -0.0304,-0.011 -0.12382,-0.011 -0.10929,0 -0.11342,7.1e-4 -0.12379,0.0152 z m 0.18122,0.12104 0.002,0.0574 h -0.056 -0.0553 v -0.0588 -0.0595 l 0.0539,0.002 0.0533,0.002 z"
       style="fill:#326d7d;fill-rule:evenodd;stroke-width:0.352777"
       id="path462" />
    <path
       d="m 130.31279,157.52383 c -0.009,0.0125 -0.011,0.0367 -0.011,0.11966 0,0.14319 -0.008,0.1349 0.13419,0.1349 0.0858,0 0.1155,-0.002 0.12587,-0.01 0.0117,-0.009 0.0132,-0.0194 0.0132,-0.1252 0,-0.10583 -0.001,-0.11621 -0.0132,-0.1252 -0.0104,-0.008 -0.0401,-0.01 -0.12587,-0.01 -0.10862,0 -0.11278,7.1e-4 -0.12315,0.0152 z m 0.18263,0.11966 v 0.0588 h -0.0554 -0.0553 v -0.0588 -0.0588 h 0.0553 0.0554 z"
       style="fill:#326d7d;fill-rule:evenodd;stroke-width:0.352777"
       id="path463" />
    <path
       d="m 129.26695,157.9195 c -0.0118,0.009 -0.0132,0.0207 -0.0152,0.11825 -0.002,0.0899 -7.1e-4,0.1107 0.009,0.1252 l 0.0104,0.0166 h 0.16948 c 0.16672,0 0.16877,0 0.17917,-0.0152 0.0159,-0.0228 0.0159,-0.21649 0,-0.23932 -0.0104,-0.0152 -0.0132,-0.0152 -0.17501,-0.0152 -0.13074,0 -0.16672,0.002 -0.17776,0.01 z m 0.28081,0.1252 v 0.0588 h -0.10721 -0.10721 v -0.0588 -0.0588 h 0.10721 0.10721 z"
       style="fill:#326d7d;fill-rule:evenodd;stroke-width:0.352777"
       id="path464" />
    <path
       d="m 130.22565,157.92363 c -0.0125,0.0125 -0.0138,0.0228 -0.0138,0.11966 0,0.0844 0.002,0.10862 0.0111,0.12107 0.0104,0.0152 0.0125,0.0152 0.17917,0.0152 h 0.16948 l 0.0104,-0.0166 c 0.01,-0.0145 0.011,-0.0353 0.009,-0.1252 -0.002,-0.0975 -0.004,-0.10929 -0.0152,-0.11825 -0.011,-0.008 -0.047,-0.01 -0.17501,-0.01 -0.15215,0 -0.16185,7.1e-4 -0.17498,0.0138 z m 0.2836,0.12107 v 0.0588 h -0.10721 -0.10721 v -0.0588 -0.0588 h 0.10721 0.10721 z"
       style="fill:#326d7d;fill-rule:evenodd;stroke-width:0.352777"
       id="path465" />
  </g>
</svg>
