<?xml version="1.0" encoding="UTF-8" standalone="no"?>
<!-- Created with Inkscape (http://www.inkscape.org/) -->

<svg
   width="1.5764056mm"
   height="1.5697201mm"
   viewBox="0 0 1.5764056 1.5697201"
   version="1.1"
   id="svg1"
   xmlns:inkscape="http://www.inkscape.org/namespaces/inkscape"
   xmlns:sodipodi="http://sodipodi.sourceforge.net/DTD/sodipodi-0.dtd"
   xmlns="http://www.w3.org/2000/svg"
   xmlns:svg="http://www.w3.org/2000/svg">
  <sodipodi:namedview
     id="namedview1"
     pagecolor="#ffffff"
     bordercolor="#000000"
     borderopacity="0.25"
     inkscape:showpageshadow="2"
     inkscape:pageopacity="0.0"
     inkscape:pagecheckerboard="0"
     inkscape:deskcolor="#d1d1d1"
     inkscape:document-units="mm" />
  <defs
     id="defs1" />
  <g
     inkscape:label="Capa 1"
     inkscape:groupmode="layer"
     id="layer1"
     transform="translate(-129.13315,-164.02812)">
    <path
       d="m 129.352,164.04082 c -0.0954,0.0373 -0.12866,0.10996 -0.12933,0.28498 v 0.0664 l -0.0277,0.005 c -0.0152,0.003 -0.0346,0.0104 -0.0429,0.0173 -0.0152,0.0125 -0.0159,0.0166 -0.018,0.16807 -0.002,0.15356 -0.002,0.15564 0.0138,0.17363 0.0111,0.0131 0.0249,0.02 0.045,0.0228 l 0.029,0.004 0.002,0.28844 c 0.002,0.27185 0.003,0.28913 0.0159,0.31196 0.01,0.0173 0.0145,0.0422 0.0173,0.0899 0.006,0.10862 0.027,0.12453 0.16256,0.12453 0.0768,0 0.0913,-0.002 0.11067,-0.0138 0.027,-0.0166 0.045,-0.0512 0.045,-0.0858 v -0.0249 h 0.34586 0.34583 v 0.0249 c 0,0.0346 0.018,0.0692 0.0456,0.0865 0.0215,0.0132 0.0318,0.0138 0.12037,0.0118 l 0.0968,-0.002 0.0256,-0.0256 c 0.0256,-0.0256 0.0263,-0.027 0.0297,-0.0934 0.003,-0.0491 0.008,-0.0747 0.0173,-0.092 0.0132,-0.0228 0.0138,-0.0401 0.0159,-0.31542 l 0.002,-0.29122 0.0159,0.003 c 0.02,0.004 0.0567,-0.0138 0.0664,-0.0318 0.004,-0.008 0.007,-0.0719 0.007,-0.15631 0,-0.16394 -0.004,-0.1778 -0.047,-0.18955 -0.0138,-0.004 -0.0297,-0.008 -0.0339,-0.008 -0.006,0 -0.009,-0.0138 -0.009,-0.047 -7.1e-4,-0.0664 -0.011,-0.16668 -0.0214,-0.20129 -0.011,-0.0373 -0.0567,-0.0892 -0.0927,-0.10513 -0.0263,-0.0125 -0.0588,-0.0132 -0.57411,-0.0125 -0.51808,0 -0.54853,7e-4 -0.57964,0.0132 z m 1.12268,0.0567 c 0.0131,0.006 0.0304,0.0201 0.038,0.0305 0.0353,0.0471 0.0339,0.0284 0.0367,0.63916 l 0.002,0.57136 -0.0159,0.0235 c -0.0291,0.0429 -0.0187,0.0422 -0.62809,0.0401 -0.51046,-0.002 -0.55128,-0.003 -0.57202,-0.0145 -0.0464,-0.0249 -0.0443,0.007 -0.0422,-0.62254 l 0.002,-0.56861 0.0173,-0.0346 c 0.0207,-0.0415 0.0616,-0.065 0.12728,-0.0726 0.0228,-0.003 0.26007,-0.005 0.52638,-0.004 0.43786,7e-4 0.48627,0.002 0.50842,0.0124 z m -1.25201,0.48976 c 0,0.11967 -7e-4,0.1245 -0.0138,0.1245 -0.0131,0 -0.0139,-0.005 -0.0139,-0.1245 0,-0.11966 7.1e-4,-0.12453 0.0139,-0.12453 0.0131,0 0.0138,0.005 0.0138,0.12453 z m 1.4249,0 c 0,0.11967 -7e-4,0.1245 -0.0138,0.1245 -0.0131,0 -0.0138,-0.005 -0.0138,-0.1245 0,-0.11966 7e-4,-0.12453 0.0138,-0.12453 0.0131,0 0.0138,0.005 0.0138,0.12453 z m -1.21531,0.88332 0.074,0.004 v 0.0228 c 0,0.0318 -0.0138,0.0374 -0.0899,0.0374 -0.0803,0 -0.0899,-0.005 -0.0899,-0.0463 0,-0.029 7.1e-4,-0.0311 0.0159,-0.0269 0.008,0.003 0.0484,0.007 0.0899,0.009 z m 1.08391,0.0194 c 0,0.0401 -0.01,0.0449 -0.0899,0.0449 -0.0761,0 -0.0899,-0.006 -0.0899,-0.038 v -0.0242 l 0.0539,-7.1e-4 c 0.0291,0 0.0657,-0.003 0.081,-0.006 0.0457,-0.01 0.045,-0.0104 0.045,0.0235 z"
       style="fill:#326d7d;fill-rule:evenodd;stroke-width:0.352777"
       id="path475" />
    <path
       d="m 129.57891,164.11967 c -0.0284,0.0124 -0.0381,0.0366 -0.0381,0.0947 0,0.045 0.001,0.0505 0.0201,0.0692 l 0.0201,0.0201 h 0.35415 c 0.24,0 0.35828,-0.002 0.36798,-0.008 0.0305,-0.0166 0.0436,-0.0934 0.0228,-0.14182 -0.0187,-0.0443 -0.0187,-0.0443 -0.39222,-0.0443 -0.26077,7e-4 -0.33891,0.003 -0.35482,0.01 z m 0.68823,0.0906 v 0.0311 h -0.32854 -0.32858 v -0.0311 -0.0311 h 0.32858 0.32854 z"
       style="fill:#326d7d;fill-rule:evenodd;stroke-width:0.352777"
       id="path476" />
    <path
       d="m 129.43155,164.34171 c -0.0366,0.0111 -0.0546,0.027 -0.0678,0.0581 -0.0125,0.0291 -0.0145,0.46482 -0.002,0.49664 0.0111,0.0297 0.0394,0.0554 0.0705,0.0636 0.0207,0.006 0.15978,0.008 0.49597,0.006 l 0.4669,-0.002 0.0311,-0.0187 c 0.0187,-0.0104 0.0374,-0.029 0.047,-0.0463 0.0159,-0.0277 0.0159,-0.0291 0.0139,-0.26148 -0.002,-0.23174 -0.002,-0.23378 -0.018,-0.25523 -0.009,-0.0111 -0.0256,-0.027 -0.0381,-0.0346 -0.0214,-0.0124 -0.0408,-0.0131 -0.49593,-0.0145 -0.38393,-10e-4 -0.47936,7.1e-4 -0.50359,0.008 z m 0.97462,0.0719 0.0166,0.0132 0.002,0.20612 c 0.001,0.14732 -7e-4,0.21167 -0.006,0.2255 -0.0166,0.0408 -0.004,0.0401 -0.51047,0.0401 -0.50288,0 -0.47868,0.002 -0.48835,-0.0366 -0.002,-0.008 -0.004,-0.11 -0.002,-0.22483 l 0.002,-0.21025 0.0166,-0.0132 c 0.0152,-0.0125 0.0339,-0.0131 0.48485,-0.0131 0.45103,0 0.46969,7.1e-4 0.48489,0.0131 z"
       style="fill:#326d7d;fill-rule:evenodd;stroke-width:0.352777"
       id="path477" />
    <path
       d="m 129.45508,165.06525 c -0.0567,0.0159 -0.0955,0.065 -0.0996,0.12795 -0.006,0.083 0.0491,0.14665 0.12936,0.15078 0.13349,0.007 0.20338,-0.14661 0.11,-0.24278 -0.0325,-0.0339 -0.092,-0.0491 -0.13974,-0.036 z m 0.0906,0.0844 c 0.0214,0.02 0.0249,0.0276 0.0249,0.0532 0,0.0256 -0.004,0.0332 -0.0249,0.0533 -0.0408,0.0367 -0.0955,0.027 -0.11829,-0.0214 -0.0139,-0.029 -0.0139,-0.0346 0,-0.0636 0.0235,-0.0484 0.0775,-0.0581 0.11829,-0.0214 z"
       style="fill:#326d7d;fill-rule:evenodd;stroke-width:0.352777"
       id="path478" />
    <path
       d="m 130.29829,165.06871 c -0.12245,0.0436 -0.12245,0.22479 7.1e-4,0.26769 0.0948,0.0339 0.18954,-0.0332 0.18954,-0.13353 0,-0.10029 -0.0955,-0.16739 -0.19021,-0.13416 z m 0.0858,0.0685 c 0.018,0.009 0.0422,0.0463 0.0422,0.0657 0,0.0194 -0.0242,0.0567 -0.0422,0.0657 -0.0318,0.0173 -0.0588,0.0132 -0.0872,-0.0125 -0.0214,-0.02 -0.0249,-0.0277 -0.0249,-0.0533 0,-0.0256 0.004,-0.0332 0.0249,-0.0532 0.0284,-0.0256 0.0554,-0.0297 0.0872,-0.0125 z"
       style="fill:#326d7d;fill-rule:evenodd;stroke-width:0.352777"
       id="path479" />
  </g>
</svg>
