<?xml version="1.0" encoding="UTF-8" standalone="no"?>
<!-- Generator: Adobe Illustrator 18.1.1, SVG Export Plug-In . SVG Version: 6.00 Build 0)  -->

<svg
   version="1.1"
   id="Layer_1"
   x="0px"
   y="0px"
   viewBox="0 0 3000 90"
   enable-background="new 0 0 1200 800"
   xml:space="preserve"
   width="3000"
   height="90"
   xmlns="http://www.w3.org/2000/svg"
   xmlns:svg="http://www.w3.org/2000/svg"><defs
   id="defs5" />







<g
   id="g5"
   transform="matrix(2.5060553,0,0,2.5060553,0,-1.5060553)"><polyline
     fill="#e37d36"
     points="543.4,22.9 1199,32.8 1199,37.3 248.5,37.3 0,36.7 0,21.4 "
     id="polyline1" /><polyline
     fill="#42b0a6"
     points="531.5,10.9 543.4,22.9 0,21.4 0,1.5 0.1,1 "
     id="polyline2" /><path
     fill="#9d2063"
     d="m 554.2,11 c 27.5,2.3 538.1,13.2 644.8,15.7 v 6.1 l -655.6,-9.9 -11.9,-12"
     id="path2" /><path
     fill="#2e6d81"
     d="M 1199,26.7 C 1092.3,24.2 581.7,13.3 554.2,11 l 644.8,1.7"
     id="path3" /><polyline
     fill="#e37d36"
     points="655.6,22.9 0,32.8 0,37.3 950.5,37.3 1199,36.7 1199,21.4 "
     id="polyline3" /><polyline
     fill="#42b0a6"
     points="667.5,10.9 655.6,22.9 1199,21.4 1199,1.5 1198.9,1 "
     id="polyline4" /><path
     fill="#9d2063"
     d="M 644.8,11 C 617.3,13.3 106.7,24.2 0,26.7 v 6.1 l 655.6,-9.9 11.9,-12"
     id="path4" /><path
     fill="#2e6d81"
     d="M 0,26.7 C 106.7,24.2 617.3,13.3 644.8,11 L 0,12.7"
     id="path5" /></g>
</svg>
